<svg id="Layer_1" data-name="Layer 1" xmlns="http://www.w3.org/2000/svg" viewBox="0 0 15 15"><defs><style>.cls-1,.cls-2{fill:#010101;}.cls-1{stroke:#010101;stroke-miterlimit:10;stroke-width:0.1px;}</style></defs><title>icons</title><path class="cls-1" d="M11.59,13.18V6.87h0a5.86,5.86,0,0,0-.63-2.27L9.79,2.21A1.07,1.07,0,0,0,9.42.14H6.28a1.07,1.07,0,0,0-.37,2.07L4.77,4.6a5.63,5.63,0,0,0-.64,2.27v6.3a2,2,0,0,0,.42,1.35,1.21,1.21,0,0,0,.93.37h4.75a1.27,1.27,0,0,0,.94-.37A2.08,2.08,0,0,0,11.59,13.18Zm-5.86-12A.57.57,0,0,1,6.28.66H9.42a.57.57,0,0,1,.55.55.56.56,0,0,1-.55.55H6.28A.55.55,0,0,1,5.73,1.21ZM4.65,6.87a5.79,5.79,0,0,1,.56-2L6.43,2.28H9.24l1.23,2.56a5.72,5.72,0,0,1,.57,2v.22H4.65V6.87Zm0,.76H11v2.66H4.65Zm6.12,6.55a.68.68,0,0,1-.55.21H5.47a.75.75,0,0,1-.55-.21,1.54,1.54,0,0,1-.27-1V10.82H11v2.41A1.5,1.5,0,0,1,10.77,14.18Z"/><path class="cls-2" d="M6.83,8.12h-.5l-.18.56c-.06.2-.12.42-.16.61H6a6,6,0,0,0-.15-.61l-.16-.56H5.14L5,9.83h.35l0-.66c0-.2,0-.47,0-.71,0,.22.11.46.15.67l.18.67h.3l.2-.67c.06-.19.14-.45.2-.67h0c0,.25,0,.49,0,.7l0,.65h.37Z"/><rect class="cls-2" x="7.22" y="8.12" width="0.39" height="1.71"/><polygon class="cls-2" points="8.33 9.5 8.33 8.12 7.95 8.12 7.95 9.83 9.02 9.83 9.02 9.5 8.33 9.5"/><path class="cls-2" d="M10.06,8.85l.56-.73h-.48l-.38.56a1,1,0,0,0-.12.2h0V8.12H9.24V9.83h.39V9.26l.14-.18.42.75h.45Z"/></svg>