<svg id="Layer_1" data-name="Layer 1" xmlns="http://www.w3.org/2000/svg" viewBox="0 0 15 15"><defs><style>.cls-1{fill:#010101;}</style></defs><title>icons</title><path class="cls-1" d="M12.51,11.5a4,4,0,0,1-2.92,1.33,4.45,4.45,0,0,1-4-3h4.88a.77.77,0,1,0,0-1.53H5.2a6.49,6.49,0,0,1,0-.77,6.11,6.11,0,0,1,.06-.86h5.26a.77.77,0,1,0,0-1.54H5.63a4.44,4.44,0,0,1,4-2.93A4,4,0,0,1,12.51,3.5a.77.77,0,0,0,1.11-1.06,5.54,5.54,0,0,0-4-1.8A6.09,6.09,0,0,0,4,5.1H1.93a.77.77,0,0,0,0,1.54H3.66a8.11,8.11,0,0,0-.05.86c0,.26,0,.52,0,.77H1.93a.77.77,0,0,0,0,1.53H4a6.1,6.1,0,0,0,5.63,4.56,5.54,5.54,0,0,0,4-1.8.77.77,0,0,0-1.11-1.06Z"/></svg>