<svg id="Layer_1" data-name="Layer 1" xmlns="http://www.w3.org/2000/svg" viewBox="0 0 15 15"><defs><style>.cls-1{fill:#010101;}</style></defs><title>icons</title><path class="cls-1" d="M12.32,4.76l.58-.57a.58.58,0,0,0,0-.81.56.56,0,0,0-.81,0L11.51,4a6.1,6.1,0,0,0-3.38-1.4V1.4h.55a.58.58,0,0,0,0-1.15H6.43a.57.57,0,0,0-.57.58.57.57,0,0,0,.57.57H7V2.55a6.2,6.2,0,1,0,5.34,2.21Zm-4.77,9a5.05,5.05,0,1,1,5.06-5A5.06,5.06,0,0,1,7.55,13.77Zm2.65-7.7a.56.56,0,0,1,0,.81L8,9.12a.56.56,0,0,1-.81,0,.57.57,0,0,1,0-.8L9.4,6.07A.57.57,0,0,1,10.2,6.07Z"/></svg>