<svg id="Layer_1" data-name="Layer 1" xmlns="http://www.w3.org/2000/svg" viewBox="0 0 15 15"><defs><style>.cls-1{fill:#010101;}</style></defs><title>icons</title><path class="cls-1" d="M13.81,1.33A.44.44,0,0,0,13.5,1a.45.45,0,0,0-.43.12A9.84,9.84,0,0,1,9.85,2.85,2.94,2.94,0,0,0,8.08,4.61a3.71,3.71,0,0,0,.55,3.2l0,0a18.57,18.57,0,0,0-1.19,3.9C5.52,2.9,1.8,1.12,1.63,1a.45.45,0,0,0-.58.22.44.44,0,0,0,.22.58s4.19,2,5.86,12.75a.45.45,0,0,0,.44.37h0A.45.45,0,0,0,8,14.54a20.5,20.5,0,0,1,1.5-6.4,3.67,3.67,0,0,0,.61,0,4.06,4.06,0,0,0,3.48-2s0,0,0,0C14.55,4.29,13.84,1.45,13.81,1.33Zm-1,4.37a3.22,3.22,0,0,1-3,1.62,9,9,0,0,1,1.47-2.09.44.44,0,1,0-.63-.6A10.08,10.08,0,0,0,9.14,6.88a2.69,2.69,0,0,1-.24-2,2.09,2.09,0,0,1,1.26-1.24A14.85,14.85,0,0,0,13.1,2.22,6.29,6.29,0,0,1,12.85,5.7Z"/></svg>