<svg id="Layer_1" data-name="Layer 1" xmlns="http://www.w3.org/2000/svg" viewBox="0 0 15 15"><defs><style>.cls-1{fill:#010101;}</style></defs><title>icons</title><path class="cls-1" d="M14.64,7a.44.44,0,0,0-.4-.39c-.11,0-2.87-.26-4.48,1.35A3.93,3.93,0,0,0,9,9.1,6.72,6.72,0,0,0,7.28,5.9,7.25,7.25,0,0,0,3.12,4,11.86,11.86,0,0,0,.76,3.94a.44.44,0,0,0-.39.4A10.93,10.93,0,0,0,.46,6.69a7.31,7.31,0,0,0,1.86,4.16,7.25,7.25,0,0,0,4.16,1.86,10.67,10.67,0,0,0,1.64.12H9.31a5.76,5.76,0,0,0,4-1.37C14.89,9.85,14.65,7.09,14.64,7ZM5.11,8.07a.42.42,0,0,0-.62,0,.43.43,0,0,0,0,.61L7.76,12a7.29,7.29,0,0,1-4.82-1.72C1.29,8.58,1.2,5.8,1.22,4.79c1,0,3.78.07,5.44,1.73a7.36,7.36,0,0,1,1.72,4.81Zm7.56,2.76a4.48,4.48,0,0,1-2.76,1.09L11.83,10a.44.44,0,0,0,0-.62.43.43,0,0,0-.61,0L9.29,11.31a4.48,4.48,0,0,1,1.09-2.76,5,5,0,0,1,3.4-1.12A5,5,0,0,1,12.67,10.83Z"/></svg>